<?xml version="1.0" encoding="UTF-8"?>
<!DOCTYPE svg PUBLIC "-//W3C//DTD SVG 1.1//EN" "http://www.w3.org/Graphics/SVG/1.1/DTD/svg11.dtd">
<!-- Creator: CorelDRAW X7 -->
<svg xmlns="http://www.w3.org/2000/svg" xml:space="preserve" width="331px" height="331px" version="1.1" style="shape-rendering:geometricPrecision; text-rendering:geometricPrecision; image-rendering:optimizeQuality; fill-rule:evenodd; clip-rule:evenodd"
viewBox="0 0 331 331"
 xmlns:xlink="http://www.w3.org/1999/xlink">
 <defs>
  <style type="text/css">
   <![CDATA[
    .fil2 {fill:none}
    .fil1 {fill:#FEFEFE}
    .fil0 {fill:url(#id1)}
   ]]>
  </style>
   <clipPath id="id0">
    <path d="M165 1c91,0 165,74 165,165 0,90 -74,164 -165,164 -90,0 -164,-74 -164,-164 0,-91 74,-165 164,-165z"/>
   </clipPath>
  <linearGradient id="id1" gradientUnits="userSpaceOnUse" x1="0.978814" y1="165.533" x2="330.02" y2="165.533">
   <stop offset="0" style="stop-opacity:1; stop-color:#1E2B7E"/>
   <stop offset="1" style="stop-opacity:1; stop-color:#3C4AAC"/>
  </linearGradient>
 </defs>
 <g id="Layer_x0020_1">
  <metadata id="CorelCorpID_0Corel-Layer"/>
  <path class="fil0" d="M165 1c91,0 165,74 165,165 0,90 -74,164 -165,164 -90,0 -164,-74 -164,-164 0,-91 74,-165 164,-165z"/>
  <g style="clip-path:url(#id0)">
   <g id="_1372059395376">
    <path id="1" class="fil1" d="M200 237c1,4 4,11 6,15 2,5 4,12 12,9 5,-3 9,-28 12,-31 3,-3 27,-6 30,-12 2,-3 1,-6 -1,-8 -2,-3 -20,-8 -22,-10 9,-20 14,-41 7,-66 -17,-60 -88,-83 -137,-48l-11 9c-11,11 -23,29 -26,53 -7,69 62,118 123,92 2,-1 4,-3 7,-3zm-15 -52c0,3 21,56 25,65 0,1 2,5 2,6 3,2 5,0 5,-2 1,-4 8,-26 9,-27 1,-2 24,-8 27,-9 2,-1 5,-3 3,-5 -1,-1 -5,-2 -6,-3 -11,-4 -62,-25 -65,-25zm52 4c3,-6 6,-24 6,-32 -1,-23 -8,-38 -21,-55 -5,-5 -5,-4 -13,-1 -8,3 -18,8 -22,15 -3,4 -4,11 -1,15 2,4 6,7 12,7 6,0 9,-3 16,0 4,2 6,6 8,11 3,7 1,9 1,16 -1,11 5,22 14,24zm-50 -110l-3 -1c-9,-3 -20,-5 -30,-4 -5,0 -6,-1 -7,3 -2,8 -5,19 -2,26 2,7 8,8 11,5 3,-2 6,-9 8,-12 6,-13 12,-12 23,-17zm-84 16c-4,2 -13,14 -15,18 -5,7 -8,14 -11,23 -1,6 -5,23 -1,29 7,12 16,8 23,8 11,-1 16,6 19,14 1,4 2,8 6,10 11,5 20,-3 27,22 2,4 3,10 6,12 7,5 17,-13 13,-33 -2,-14 -9,-12 -11,-22 -1,-10 6,-23 -4,-27 -12,-4 -15,6 -20,11 -10,9 -30,-2 -16,-18 2,-3 5,-4 8,-9 5,-10 -1,-17 -5,-23 -3,-3 -14,-13 -19,-15zm4 -3c5,5 22,12 26,29 5,20 -25,28 -11,36 14,8 14,-22 36,-11 8,3 7,10 6,20 -1,4 -1,8 1,12 1,4 3,4 6,8 7,12 6,33 -2,44 -3,5 -11,10 -17,2 -4,-4 -5,-14 -8,-20 -3,-8 -8,-7 -18,-10 -9,-2 -10,-5 -13,-14 -2,-7 -6,-12 -16,-10 -5,1 -9,1 -13,-1 -3,-1 -7,-3 -8,-5 0,5 3,15 5,19 7,17 20,30 36,40 18,11 42,14 63,8 4,-1 15,-4 18,-7l-15 -37c-1,-3 -4,-9 -1,-13 3,-3 9,0 13,2 4,1 8,3 12,5 5,1 22,8 25,9l3 -5c-3,-2 -9,-3 -13,-10 -10,-18 3,-28 -8,-39 -6,-6 -11,0 -20,-1 -16,-3 -23,-27 2,-41 5,-3 12,-6 17,-7 -1,-3 -8,-7 -11,-9 -7,-4 -6,-4 -14,-2 -17,5 -17,8 -22,18 -2,5 -5,9 -9,11 -5,3 -12,-1 -14,-4 -8,-10 -1,-26 0,-34 -10,2 -31,11 -36,17z"/>
   </g>
  </g>
  <path class="fil2" d="M165 1c91,0 165,74 165,165 0,90 -74,164 -165,164 -90,0 -164,-74 -164,-164 0,-91 74,-165 164,-165z"/>
  <path class="fil1" d="M-583 404l125 0c8,0 14,-2 17,-10 3,-4 2,-7 1,-12 -3,-15 -6,-31 -9,-47 -2,0 -5,0 -7,0 -2,0 -4,0 -5,2 -3,2 -1,6 1,7 1,0 3,0 4,0 0,1 4,23 4,25 -1,1 -8,6 -9,7 -3,2 -2,2 -6,1l-53 -23c-3,-1 -22,-9 -23,-10 8,0 16,1 24,0 3,0 5,-4 3,-7 -2,-2 -6,-2 -10,-2 -8,0 -15,0 -23,0 -8,0 -17,0 -24,0 -1,1 -11,67 -10,69zm109 -8c3,0 13,0 17,0 4,0 7,-2 9,-6 1,-2 0,-4 0,-6 -1,-1 -1,-4 -2,-6 -1,1 -10,8 -12,9 -2,1 -11,8 -12,9zm-99 0c2,0 2,-1 5,-4 1,-2 3,-3 4,-5 2,-2 26,-30 26,-31 0,-1 -26,-11 -28,-12l-4 26c0,3 -4,24 -3,26zm13 0c8,0 17,0 25,0l43 0c3,0 3,0 5,-2 2,-1 13,-9 14,-10l-54 -23c-3,-1 -3,0 -8,5 -3,4 -5,7 -8,10 -2,3 -16,19 -17,20z"/>
  <path class="fil1" d="M-487 363c3,-2 15,-17 18,-21 5,-6 12,-16 15,-25 6,-21 -11,-43 -34,-43 -23,0 -39,23 -32,43 4,14 20,34 31,45l2 1zm-3 -66c-15,5 -9,26 6,22 5,-1 9,-7 8,-14 -2,-5 -8,-10 -14,-8z"/>
 </g>
</svg>
