<?xml version="1.0" encoding="UTF-8"?>
<!DOCTYPE svg PUBLIC "-//W3C//DTD SVG 1.1//EN" "http://www.w3.org/Graphics/SVG/1.1/DTD/svg11.dtd">
<!-- Creator: CorelDRAW X7 -->
<svg xmlns="http://www.w3.org/2000/svg" xml:space="preserve" width="331px" height="331px" version="1.1" style="shape-rendering:geometricPrecision; text-rendering:geometricPrecision; image-rendering:optimizeQuality; fill-rule:evenodd; clip-rule:evenodd"
viewBox="0 0 331 331"
 xmlns:xlink="http://www.w3.org/1999/xlink">
 <defs>
  <style type="text/css">
   <![CDATA[
    .fil2 {fill:none}
    .fil1 {fill:#FEFEFE}
    .fil3 {fill:#C9C9C9}
    .fil0 {fill:url(#id1)}
   ]]>
  </style>
   <clipPath id="id0">
    <path d="M165 1c91,0 165,74 165,165 0,90 -74,164 -165,164 -90,0 -164,-74 -164,-164 0,-91 74,-165 164,-165z"/>
   </clipPath>
  <linearGradient id="id1" gradientUnits="userSpaceOnUse" x1="0.978814" y1="165.533" x2="330.02" y2="165.533">
   <stop offset="0" style="stop-opacity:1; stop-color:#1E2B7E"/>
   <stop offset="1" style="stop-opacity:1; stop-color:#3C4AAC"/>
  </linearGradient>
 </defs>
 <g id="Layer_x0020_1">
  <metadata id="CorelCorpID_0Corel-Layer"/>
  <path class="fil0" d="M165 1c91,0 165,74 165,165 0,90 -74,164 -165,164 -90,0 -164,-74 -164,-164 0,-91 74,-165 164,-165z"/>
  <g style="clip-path:url(#id0)">
   <g id="_1372059438480">
    <path id="1" class="fil1" d="M142 177c-1,3 -3,1 -3,0l-9 -10c-4,-3 -7,-10 -15,-8l-1 0c0,6 -2,6 3,13l20 28c6,9 6,10 17,16 5,2 5,4 5,11 0,5 0,10 0,16 14,0 28,0 41,0 4,0 7,0 10,0 2,0 3,-1 3,-3 0,-2 0,-4 0,-5 0,-13 -1,-7 3,-18 4,-12 3,-24 3,-37 0,-7 0,-14 0,-21 0,-5 1,-13 -5,-15 -1,1 -2,1 -2,1 -8,5 -1,14 -12,13 0,-2 0,-6 0,-8 0,-1 0,-7 -1,-9 -1,-3 -3,-4 -5,-5 -1,1 -3,1 -5,4 -3,5 0,13 -2,17 -2,1 -4,3 -6,3 0,-5 -1,-13 0,-18 -1,0 0,-4 -2,-6 -2,-3 -3,-3 -5,-4 0,0 0,0 0,0l-2 1c-8,5 -2,16 -5,22 0,2 -3,4 -6,4 0,-5 0,-15 1,-20 -1,-1 -1,-4 0,-5 -1,-3 -1,-18 -1,-21 0,-9 -1,-12 -7,-14 -2,2 -4,3 -5,7 -1,5 1,63 0,67 -1,2 -4,4 -7,4z"/>
    <path class="fil1" d="M142 134c0,-8 0,-16 0,-23 0,-4 1,-7 3,-9 2,-2 4,-3 9,-3 6,2 7,5 7,14 0,3 0,18 1,21 4,-2 8,-7 10,-10 9,-15 -1,-35 -20,-36 -10,0 -20,8 -23,19 -3,10 3,23 13,27z"/>
    <path class="fil1" d="M117 94c-1,0 -1,0 -2,3 -2,6 -3,10 -3,16 0,4 2,19 7,17 3,-2 -3,-7 -2,-20 0,-8 3,-12 3,-14 0,-2 -1,-3 -3,-2z"/>
    <path class="fil1" d="M185 93c-2,1 -1,3 -1,4 7,16 0,29 0,31 0,1 1,3 3,2 3,-1 5,-14 5,-19 0,-3 -2,-20 -7,-18z"/>
   </g>
  </g>
  <path class="fil2" d="M165 1c91,0 165,74 165,165 0,90 -74,164 -165,164 -90,0 -164,-74 -164,-164 0,-91 74,-165 164,-165z"/>
  <path class="fil1" d="M-583 404l125 0c8,0 14,-2 17,-10 3,-4 2,-7 1,-12 -3,-15 -6,-31 -9,-47 -2,0 -5,0 -7,0 -2,0 -4,0 -5,2 -3,2 -1,6 1,7 1,0 3,0 4,0 0,1 4,23 4,25 -1,1 -8,6 -9,7 -3,2 -2,2 -6,1l-53 -23c-3,-1 -22,-9 -23,-10 8,0 16,1 24,0 3,0 5,-4 3,-7 -2,-2 -6,-2 -10,-2 -8,0 -15,0 -23,0 -8,0 -17,0 -24,0 -1,1 -11,67 -10,69zm109 -8c3,0 13,0 17,0 4,0 7,-2 9,-6 1,-2 0,-4 0,-6 -1,-1 -1,-4 -2,-6 -1,1 -10,8 -12,9 -2,1 -11,8 -12,9zm-99 0c2,0 2,-1 5,-4 1,-2 3,-3 4,-5 2,-2 26,-30 26,-31 0,-1 -26,-11 -28,-12l-4 26c0,3 -4,24 -3,26zm13 0c8,0 17,0 25,0l43 0c3,0 3,0 5,-2 2,-1 13,-9 14,-10l-54 -23c-3,-1 -3,0 -8,5 -3,4 -5,7 -8,10 -2,3 -16,19 -17,20z"/>
  <path class="fil1" d="M-487 363c3,-2 15,-17 18,-21 5,-6 12,-16 15,-25 6,-21 -11,-43 -34,-43 -23,0 -39,23 -32,43 4,14 20,34 31,45l2 1zm-3 -66c-15,5 -9,26 6,22 5,-1 9,-7 8,-14 -2,-5 -8,-10 -14,-8z"/>
  <path class="fil1" d="M-27720 15692c1,5 4,11 6,16 2,5 5,12 12,8 5,-3 9,-27 12,-30 3,-4 27,-7 30,-13 2,-2 1,-6 0,-8 -3,-3 -20,-7 -23,-10 9,-20 14,-41 7,-65 -17,-61 -88,-84 -137,-49l-10 9c-12,12 -24,30 -26,53 -8,69 61,118 122,92 2,-1 5,-2 7,-3zm-15 -51c0,2 21,56 25,64 0,2 2,6 3,7 2,2 4,-1 4,-3 1,-3 8,-26 9,-27 2,-1 24,-8 27,-9 2,-1 5,-2 3,-5 0,0 -5,-2 -6,-3 -11,-4 -62,-24 -65,-24zm52 3c3,-6 6,-24 6,-32 -1,-22 -8,-38 -21,-54 -5,-5 -5,-4 -13,-2 -7,3 -18,8 -22,15 -3,5 -4,11 -1,16 2,4 6,7 12,7 6,-1 9,-4 16,0 4,2 7,5 8,10 3,7 1,9 1,16 -1,12 5,23 14,24zm-50 -109l-3 -2c-9,-3 -20,-4 -30,-4 -5,1 -6,0 -7,4 -2,7 -5,19 -2,26 3,6 9,7 12,5 2,-2 5,-9 7,-13 6,-13 12,-11 23,-16zm-84 16c-4,2 -13,13 -15,17 -5,7 -8,15 -11,23 -1,6 -5,24 -1,29 7,12 16,9 23,9 11,-1 16,5 19,13 2,5 2,8 6,10 11,6 20,-2 28,23 1,3 2,9 5,11 7,6 18,-13 13,-33 -2,-13 -9,-12 -11,-22 -1,-10 6,-22 -4,-26 -12,-5 -15,5 -20,10 -9,9 -30,-2 -16,-17 2,-3 5,-5 8,-9 5,-10 0,-18 -5,-24 -3,-3 -14,-13 -19,-14zm4 -4c5,5 22,13 26,29 5,21 -25,29 -11,37 14,8 14,-23 36,-12 8,4 7,11 6,20 -1,4 -1,9 1,13 1,3 3,4 6,8 7,11 6,33 -1,43 -4,6 -12,10 -18,3 -4,-5 -5,-14 -8,-20 -3,-8 -8,-8 -17,-10 -10,-2 -10,-6 -13,-14 -3,-8 -7,-12 -17,-11 -5,1 -9,1 -13,0 -3,-1 -7,-4 -8,-5 0,4 4,14 5,19 8,17 20,30 36,40 18,10 42,13 63,8 4,-1 15,-5 18,-8l-14 -36c-2,-4 -5,-10 -2,-13 3,-4 9,0 13,1 4,2 8,3 12,5 5,2 22,9 25,10l3 -5c-3,-3 -9,-3 -13,-11 -10,-17 3,-27 -8,-38 -6,-7 -11,-1 -20,-2 -16,-2 -23,-27 2,-41 5,-2 12,-6 18,-7 -2,-2 -9,-7 -12,-8 -6,-4 -6,-5 -14,-2 -16,4 -17,7 -22,17 -2,5 -5,10 -9,12 -5,2 -12,-1 -14,-4 -8,-10 -1,-27 0,-34 -10,1 -30,10 -36,16z"/>
  <path class="fil1" d="M-26173 15537l69 0 32 32 0 96c0,4 -3,8 -7,8l-94 0c-4,0 -7,-4 -7,-8l0 -120c0,-5 3,-8 7,-8zm10 113l43 0c3,0 5,2 5,5l0 0c0,2 -2,4 -5,4l-43 0c-3,0 -5,-2 -5,-4l0 0c0,-3 2,-5 5,-5zm-1 -23l61 0c2,0 4,2 4,5l0 0c0,2 -2,5 -4,5l-61 0c-3,0 -5,-3 -5,-5l0 0c0,-3 2,-5 5,-5zm1 -23l76 0c2,0 4,2 4,5l0 0c0,2 -2,4 -4,4l-76 0c-3,0 -5,-2 -5,-4l0 0c0,-3 2,-5 5,-5z"/>
  <path class="fil1" d="M-26083 15676c-2,0 -55,0 -57,0 -9,0 -18,0 -28,0 -5,0 -8,0 -12,-2 -3,-3 -3,-6 -3,-11l0 -106c0,-2 0,-5 0,-7 -5,0 -9,3 -10,7 0,2 0,14 0,16l0 99c0,5 0,10 5,12 2,2 4,1 7,1l83 0c2,0 6,1 8,0 4,-1 7,-4 7,-9z"/>
  <path class="fil3" d="M-26071 15570c0,-1 -7,-7 -8,-8 -2,-3 -5,-5 -8,-8 -1,-1 -15,-16 -16,-16 0,2 0,13 0,16 0,6 -1,10 3,13 3,4 7,3 13,3 5,0 11,0 16,0z"/>
 </g>
</svg>
