<?xml version="1.0" encoding="UTF-8"?>
<!DOCTYPE svg PUBLIC "-//W3C//DTD SVG 1.1//EN" "http://www.w3.org/Graphics/SVG/1.1/DTD/svg11.dtd">
<!-- Creator: CorelDRAW X7 -->
<svg xmlns="http://www.w3.org/2000/svg" xml:space="preserve" width="331px" height="331px" version="1.1" style="shape-rendering:geometricPrecision; text-rendering:geometricPrecision; image-rendering:optimizeQuality; fill-rule:evenodd; clip-rule:evenodd"
viewBox="0 0 331 331"
 xmlns:xlink="http://www.w3.org/1999/xlink">
 <defs>
  <style type="text/css">
   <![CDATA[
    .str0 {stroke:#FEFEFE;stroke-width:2.36429;stroke-dasharray:2.364286 2.364286}
    .fil3 {fill:none}
    .fil1 {fill:#FEFEFE}
    .fil2 {fill:#C9C9C9}
    .fil0 {fill:url(#id0)}
   ]]>
  </style>
  <linearGradient id="id0" gradientUnits="userSpaceOnUse" x1="0.978814" y1="165.534" x2="330.02" y2="165.534">
   <stop offset="0" style="stop-opacity:1; stop-color:#1E2B7E"/>
   <stop offset="1" style="stop-opacity:1; stop-color:#3C4AAC"/>
  </linearGradient>
 </defs>
 <g id="Layer_x0020_1">
  <metadata id="CorelCorpID_0Corel-Layer"/>
  <circle class="fil0" cx="165" cy="166" r="165"/>
  <path class="fil1" d="M229 175l19 0 9 8 0 11c-3,-5 -10,-7 -15,-3 -1,1 -2,2 -2,2 0,1 -1,1 -1,2l0 1c0,0 0,1 0,1 0,0 0,0 0,1 0,0 0,1 0,1 0,0 0,0 0,1 0,0 0,0 0,0l0 0c0,1 0,1 0,2 1,1 2,3 2,3 1,1 2,2 4,3 2,1 5,0 8,-1 0,0 0,0 1,0l1 1c0,0 1,-1 1,-1l1 -1 0 4c0,1 -1,2 -2,2l-26 0c-1,0 -2,-1 -2,-2l0 -33c0,-1 1,-2 2,-2zm28 28l0 1 -1 0c0,0 1,-1 1,-1l0 0z"/>
  <path class="fil1" d="M158 196l18 0 9 9 0 10c-3,-5 -9,-7 -14,-3 -2,1 -3,3 -3,3 0,0 0,1 -1,2l0 0c0,1 0,1 0,1 0,0 0,1 0,1 0,0 0,1 0,2 0,0 0,0 0,0 0,0 0,0 0,0l0 0c0,1 0,2 0,2 1,2 2,3 3,4 0,0 2,1 3,2 2,1 5,1 8,-1 0,0 1,0 1,0l1 1c0,0 1,-1 2,-1l0 0 0 3c0,1 -1,2 -2,2l-25 0c-2,0 -2,-1 -2,-2l0 -33c0,-1 0,-2 2,-2zm27 28l0 2 0 -1c0,0 0,0 0,-1l0 0z"/>
  <path class="fil1" d="M84 174l19 0 9 9 0 11c-3,-6 -10,-7 -15,-4 -1,2 -2,3 -2,3 0,1 -1,1 -1,2l0 1c0,0 0,0 0,0 0,1 0,1 0,1 -1,1 0,2 -1,2 1,0 0,0 1,0 0,0 0,0 0,0l0 1c0,0 0,1 0,2 1,1 2,2 2,3 1,1 2,1 4,2 2,1 5,1 8,0 0,-1 0,-1 0,-1l2 2c0,-1 1,-2 1,-2l1 0 0 3c0,1 -1,2 -2,2l-26 0c-1,0 -2,-1 -2,-2l0 -33c0,-1 1,-2 2,-2zm28 28l0 2 -1 -1c0,0 0,0 1,0l0 -1z"/>
  <path class="fil1" d="M247 191c-3,1 -7,4 -6,8 0,4 4,7 8,7 4,-1 7,-4 7,-8 -1,-4 -4,-7 -9,-7zm0 1c-5,1 -7,6 -4,10 0,0 1,2 2,1 0,0 0,-1 0,-1 0,-1 -2,-2 -1,-4 0,-3 4,-5 7,-3 1,0 1,1 1,1 1,0 2,-1 1,-1 -1,-2 -3,-3 -6,-3z"/>
  <path class="fil1" d="M176 213c-4,0 -7,3 -7,8 1,3 4,7 8,6 4,0 7,-4 7,-8 -1,-4 -4,-7 -8,-6zm0 0c-5,1 -7,6 -5,10 0,1 1,2 2,1 0,0 0,-1 0,-1 0,0 -1,-1 -1,-4 0,-3 5,-5 8,-3 0,1 0,1 0,1 1,1 2,0 1,-1 -1,-2 -3,-3 -5,-3z"/>
  <path class="fil1" d="M102 191c-3,0 -7,4 -6,8 0,4 4,7 8,6 4,0 7,-4 6,-8 0,-4 -3,-7 -8,-6zm0 1c-5,0 -7,6 -4,9 0,1 1,2 1,1 1,0 1,0 1,-1 0,0 -2,-1 -1,-3 0,-4 4,-6 7,-3 0,0 1,0 1,0 1,1 2,0 1,-1 -1,-2 -3,-3 -6,-2z"/>
  <path class="fil1" d="M254 213c-1,-1 -15,0 -16,0 -2,0 -5,0 -7,0 -2,0 -3,0 -4,-1 -1,-1 -1,-1 -1,-3l0 -29c0,0 0,-1 0,-2 -1,0 -2,1 -2,2 0,1 0,4 0,5l0 27c0,1 0,2 1,3 1,0 1,0 2,0l22 0c1,0 2,0 3,0 1,0 2,-1 2,-2z"/>
  <path class="fil1" d="M182 234c-1,0 -15,0 -16,0 -2,0 -5,0 -7,0 -2,0 -3,0 -3,-1 -1,-1 -1,-1 -1,-3l0 -28c0,-1 0,-2 0,-2 -2,0 -3,0 -3,2 0,0 0,3 0,4l0 27c0,1 0,2 1,3 1,0 1,0 2,0l23 0c0,0 1,0 2,0 1,0 2,-1 2,-2z"/>
  <path class="fil1" d="M108 212c0,0 -14,0 -15,0 -2,0 -5,0 -8,0 -1,0 -2,0 -3,-1 -1,0 -1,-1 -1,-2l0 -29c0,-1 0,-2 0,-2 -1,0 -2,1 -2,2 0,0 0,4 0,4l0 27c0,1 0,3 1,3 1,1 1,1 2,1l22 0c1,0 2,0 2,0 2,-1 2,-2 2,-3z"/>
  <path class="fil1" d="M258 205c0,1 -1,2 -2,2 0,0 -1,1 -1,1 0,0 0,0 0,0 0,1 3,4 4,4 0,1 1,2 1,2 3,1 5,-1 4,-3 -1,-1 -2,-2 -2,-2 0,0 -4,-4 -4,-4 0,0 0,0 0,0z"/>
  <path class="fil1" d="M186 227c0,0 -1,1 -1,1 -1,0 -2,1 -2,1 0,1 0,1 0,1 0,0 3,3 4,4 0,0 1,1 2,1 2,1 4,-1 3,-3 0,0 -1,-1 -2,-2 0,0 -3,-4 -4,-4 0,0 0,1 0,1z"/>
  <path class="fil1" d="M113 205c0,0 -1,1 -2,1 0,0 -1,1 -1,2 0,0 0,0 0,0 0,0 3,4 3,4 1,0 2,1 2,2 3,1 5,-2 4,-4 -1,0 -2,-1 -2,-2 0,0 -4,-3 -4,-3 0,0 0,0 0,0z"/>
  <path class="fil2" d="M257 184c0,0 -2,-2 -2,-2 -1,-1 -2,-2 -2,-3 -1,0 -5,-4 -5,-4 0,1 0,3 0,4 0,2 0,3 1,4 1,1 2,1 4,1 1,0 3,0 4,0z"/>
  <path class="fil2" d="M185 205c0,0 -2,-2 -2,-2 -1,-1 -1,-2 -2,-2 0,-1 -4,-5 -4,-5 0,1 0,4 0,5 0,1 -1,2 0,3 1,1 2,1 4,1 1,0 3,0 4,0z"/>
  <path class="fil2" d="M112 183c0,0 -2,-2 -2,-2 -1,-1 -2,-1 -2,-2 -1,0 -5,-4 -5,-4 0,0 0,3 0,4 0,1 0,2 1,3 1,1 2,1 4,1 1,0 2,0 4,0z"/>
  <path class="fil1" d="M116 156l98 0c-1,-5 0,-23 0,-31l0 -24c0,-3 0,-4 -1,-7 -1,-1 -1,-2 -2,-3 -2,0 -3,-1 -5,-1l-73 0c-3,0 -7,0 -10,0 -3,0 -6,2 -7,4 -1,3 0,17 0,21 0,7 0,14 0,21 0,6 0,14 0,20zm5 -58l0 54 88 0 0 -55c0,-2 -1,-2 -3,-2l-83 0c-2,0 -2,1 -2,3z"/>
  <path class="fil1" d="M113 167c3,1 3,1 6,1l83 0c6,0 16,2 18,-4 1,-1 0,-6 0,-7l-6 -1 -98 0c-2,1 -6,0 -6,1 -1,0 -1,6 -1,7 1,2 3,2 4,3zm57 -6l-10 0c-1,0 -2,0 -3,1 -2,3 7,2 8,2 1,0 10,1 8,-2 -1,-1 -2,-1 -3,-1z"/>
  <polyline class="fil3 str0" points="113,117 93,117 93,170 "/>
  <polyline class="fil3 str0" points="216,117 236,117 236,170 "/>
  <line class="fil3 str0" x1="167" y1="176" x2="167" y2= "193" />
 </g>
</svg>
