<?xml version="1.0" encoding="UTF-8"?>
<!DOCTYPE svg PUBLIC "-//W3C//DTD SVG 1.1//EN" "http://www.w3.org/Graphics/SVG/1.1/DTD/svg11.dtd">
<!-- Creator: CorelDRAW X7 -->
<svg xmlns="http://www.w3.org/2000/svg" xml:space="preserve" width="331px" height="331px" version="1.1" style="shape-rendering:geometricPrecision; text-rendering:geometricPrecision; image-rendering:optimizeQuality; fill-rule:evenodd; clip-rule:evenodd"
viewBox="0 0 331 331"
 xmlns:xlink="http://www.w3.org/1999/xlink">
 <defs>
  <style type="text/css">
   <![CDATA[
    .fil2 {fill:none}
    .fil1 {fill:#FEFEFE}
    .fil0 {fill:url(#id1)}
   ]]>
  </style>
   <clipPath id="id0">
    <path d="M165 1c91,0 165,74 165,165 0,90 -74,164 -165,164 -90,0 -164,-74 -164,-164 0,-91 74,-165 164,-165z"/>
   </clipPath>
  <linearGradient id="id1" gradientUnits="userSpaceOnUse" x1="0.978814" y1="165.533" x2="330.02" y2="165.533">
   <stop offset="0" style="stop-opacity:1; stop-color:#1E2B7E"/>
   <stop offset="1" style="stop-opacity:1; stop-color:#3C4AAC"/>
  </linearGradient>
 </defs>
 <g id="Layer_x0020_1">
  <metadata id="CorelCorpID_0Corel-Layer"/>
  <path class="fil0" d="M165 1c91,0 165,74 165,165 0,90 -74,164 -165,164 -90,0 -164,-74 -164,-164 0,-91 74,-165 164,-165z"/>
  <g style="clip-path:url(#id0)">
   <g id="_1371876421504">
    <path id="1" class="fil1" d="M93 231l126 0c8,0 14,-3 17,-10 2,-5 2,-7 1,-13 -3,-15 -6,-31 -9,-46 -2,-1 -5,0 -7,0 -3,0 -4,-1 -6,1 -2,3 0,6 2,7 1,0 3,0 3,1 1,0 5,22 5,24 -1,1 -8,6 -10,7 -2,2 -2,2 -5,1l-53 -22c-3,-2 -22,-10 -23,-11 8,0 16,1 24,0 3,0 5,-4 3,-7 -2,-2 -6,-1 -10,-1 -8,0 -16,0 -23,0 -8,0 -17,-1 -24,0 -1,1 -11,66 -11,69zm110 -9c3,0 13,0 17,0 4,0 7,-2 8,-5 1,-3 1,-4 0,-6 0,-2 0,-5 -1,-6 -1,0 -10,7 -12,8 -2,2 -12,8 -12,9zm-100 0c3,0 3,-1 6,-4 1,-1 3,-3 4,-5 2,-2 26,-29 26,-31 -1,0 -26,-11 -28,-11l-4 25c-1,4 -4,24 -4,26zm14 0c7,1 17,0 25,0l43 0c3,0 3,0 5,-1 2,-2 13,-10 14,-11l-55 -23c-2,-1 -2,0 -7,5 -3,4 -5,7 -8,10 -2,3 -17,19 -17,20z"/>
    <path class="fil1" d="M189 190c4,-3 16,-17 19,-22 5,-6 12,-16 14,-25 7,-20 -10,-43 -33,-43 -23,1 -39,23 -33,43 5,14 21,34 32,45l1 2zm-3 -67c-14,5 -8,26 6,22 6,-1 10,-7 8,-13 -1,-6 -7,-11 -14,-9z"/>
   </g>
  </g>
  <path class="fil2" d="M165 1c91,0 165,74 165,165 0,90 -74,164 -165,164 -90,0 -164,-74 -164,-164 0,-91 74,-165 164,-165z"/>
 </g>
</svg>
